HIERARCHY
ROOT Hips
{
	OFFSET	0.00	0.00	0.00
	CHANNELS 6 Xposition Yposition Zposition Zrotation Xrotation Yrotation
	JOINT LeftUpLeg
	{
		OFFSET	 0.126116	-0.014019	-0.065224
		CHANNELS 3 Zrotation Xrotation Yrotation
		JOINT LeftLeg
		{
			OFFSET	 0.000000	 0.000000	 0.569914
			CHANNELS 3 Zrotation Xrotation Yrotation
			JOINT LeftFoot
			{
				OFFSET	 0.000000	 0.000000	 0.544423
				CHANNELS 3 Zrotation Xrotation Yrotation
				JOINT LeftToeBase
				{
					OFFSET	 0.000000	 0.000000	 0.207117
					CHANNELS 3 Zrotation Xrotation Yrotation
					End Site
					{
						OFFSET	 0.000000	 0.000000	 0.207117
					}
				}
			}
		}
	}
	JOINT RightUpLeg
	{
		OFFSET	-0.124023	-0.008373	-0.065224
		CHANNELS 3 Zrotation Xrotation Yrotation
		JOINT RightLeg
		{
			OFFSET	 0.000000	 0.000000	 0.570047
			CHANNELS 3 Zrotation Xrotation Yrotation
			JOINT RightFoot
			{
				OFFSET	 0.000000	 0.000000	 0.544354
				CHANNELS 3 Zrotation Xrotation Yrotation
				JOINT RightToeBase
				{
					OFFSET	 0.000000	 0.000000	 0.207540
					CHANNELS 3 Zrotation Xrotation Yrotation
					End Site
					{
						OFFSET	 0.000000	 0.000000	 0.207540
					}
				}
			}
		}
	}
	JOINT Spine
	{
		OFFSET	 0.000184	-0.007763	 0.117403
		CHANNELS 3 Zrotation Xrotation Yrotation
		JOINT Spine1
		{
			OFFSET	 0.000000	 0.000000	 0.137269
			CHANNELS 3 Zrotation Xrotation Yrotation
			JOINT Spine2
			{
				OFFSET	 0.000000	 0.000000	 0.156879
				CHANNELS 3 Zrotation Xrotation Yrotation
				JOINT LeftShoulder
				{
					OFFSET	 0.080501	-0.002496	 0.160144
					CHANNELS 3 Zrotation Xrotation Yrotation
					JOINT LeftArm
					{
						OFFSET	 0.000000	 0.000000	 0.164363
						CHANNELS 3 Zrotation Xrotation Yrotation
						JOINT LeftForeArm
						{
							OFFSET	 0.000000	 0.000000	 0.364576
							CHANNELS 3 Zrotation Xrotation Yrotation
							JOINT LeftHand
							{
								OFFSET	 0.000000	 0.000000	 0.360812
								CHANNELS 3 Zrotation Xrotation Yrotation
								JOINT LeftHandIndex1
								{
									OFFSET	 0.000000	 0.000000	 0.086006
									CHANNELS 3 Zrotation Xrotation Yrotation
									JOINT LeftHandIndex2
									{
										OFFSET	 0.000000	 0.000000	 0.047236
										CHANNELS 3 Zrotation Xrotation Yrotation
										JOINT LeftHandIndex3
										{
											OFFSET	-0.004284	-0.000551	 0.038166
											CHANNELS 3 Zrotation Xrotation Yrotation
											End Site
											{
												OFFSET	-0.004284	-0.000551	 0.038166
											}
										}
									}
								}
							}
						}
					}
				}
				JOINT Neck
				{
					OFFSET	 0.000000	 0.000000	 0.176489
					CHANNELS 3 Zrotation Xrotation Yrotation
					JOINT Head
					{
						OFFSET	 0.000000	-0.001747	 0.077940
						CHANNELS 3 Zrotation Xrotation Yrotation
						End Site
						{
							OFFSET	 0.000000	-0.001747	 0.077940
						}
					}
				}
				JOINT RightShoulder
				{
					OFFSET	-0.080363	 0.000306	 0.159706
					CHANNELS 3 Zrotation Xrotation Yrotation
					JOINT RightArm
					{
						OFFSET	 0.000000	 0.000000	 0.164196
						CHANNELS 3 Zrotation Xrotation Yrotation
						JOINT RightForeArm
						{
							OFFSET	 0.000000	 0.000000	 0.365611
							CHANNELS 3 Zrotation Xrotation Yrotation
							JOINT RightHand
							{
								OFFSET	 0.000000	 0.000000	 0.360648
								CHANNELS 3 Zrotation Xrotation Yrotation
								JOINT RightHandIndex1
								{
									OFFSET	 0.000000	 0.000000	 0.069977
									CHANNELS 3 Zrotation Xrotation Yrotation
									JOINT RightHandIndex2
									{
										OFFSET	 0.000000	 0.000000	 0.052305
										CHANNELS 3 Zrotation Xrotation Yrotation
										JOINT RightHandIndex3
										{
											OFFSET	 0.009002	-0.000782	 0.042196
											CHANNELS 3 Zrotation Xrotation Yrotation
											End Site
											{
												OFFSET	 0.009002	-0.000782	 0.042196
											}
										}
									}
								}
							}
						}
					}
				}
			}
		}
	}
}
MOTION
Frames:    4
Frame Time: 0.03333334
 0.000298	 0.019724	 1.271170	-0.003037	 0.003586	 0.173712	 7.846986	-1.910532	 176.322900	 1.483106	-11.136920	-0.648895	-8.983892	 70.104640	 3.072046	-2.385833	 28.452760	 0.000004	-8.018691	-1.938660	-176.644000	-1.473457	-10.785520	 0.616377	 8.551047	 69.807530	-2.805599	 2.384658	 28.388730	 0.000004	-10.453140	 2.684184	 0.296280	-2.160364	 3.798944	-0.801864	 6.539932	-4.668774	 1.418969	-91.776090	 78.527470	 179.999900	 46.427410	 35.950890	-61.172200	-11.555950	 0.315160	-2.289989	-32.076610	-13.276770	-4.855842	-2.635965	 4.993658	 6.788941	-5.165319	 0.784187	 3.516649	-5.225038	 0.466231	 0.424329	-0.000002	-3.783157	-0.089647	 6.359849	 4.550399	-0.252953	 89.782140	 78.203890	 179.999900	-63.672940	 41.764970	 61.227660	 11.244670	 0.341711	 2.311136	 32.460250	-13.984900	 9.522156	 6.112037	 4.509576	-0.364401	 4.968462	 1.518543	-9.347576	 5.168945	 0.703820	 2.021906
 0.000305	 0.019733	 1.271250	-0.002806	 0.004013	 0.174344	 8.431174	-1.983815	 176.288500	 1.482388	-11.198750	-0.652592	-8.981825	 70.099880	 3.071026	-2.385833	 28.452760	 0.000004	-8.603669	-2.007834	-176.612900	-1.472785	-10.846580	 0.619952	 8.544169	 69.804610	-2.798731	 2.384658	 28.388730	 0.000004	-15.815710	 2.636604	 0.288731	-2.153296	 3.963721	-0.787103	 6.517597	-4.882298	 1.428238	-91.776190	 78.527450	-180.000000	 46.377290	 35.869640	-60.919560	-14.554190	 0.619240	-3.911160	-33.720580	-14.853000	-5.325615	-2.635965	 4.993658	 6.788941	-5.165319	 0.784187	 3.516649	-5.225038	 0.466231	 0.424329	-0.000002	-3.783157	-0.089647	 6.329474	 4.453654	-0.246385	 89.782040	 78.203870	-180.000000	-62.699690	 41.091690	 61.980560	 13.671870	 1.485593	 5.432230	 34.232910	-15.807650	 9.857083	 6.112037	 4.509576	-0.364401	 4.968462	 1.518543	-9.347576	 5.168945	 0.703820	 2.021906
 0.000310	 0.019749	 1.271320	-0.002567	 0.004448	 0.174540	 9.012980	-2.056356	 176.255100	 1.481692	-11.258750	-0.656179	-8.978388	 70.094410	 3.068537	-2.385833	 28.452760	 0.000004	-9.186107	-2.077390	-176.582000	-1.472111	-10.907960	 0.623547	 8.536575	 69.802120	-2.790989	 2.384658	 28.388730	 0.000004	-20.832780	 2.589412	 0.280828	-2.141212	 4.127102	-0.770586	 6.479957	-5.095062	 1.433904	-91.776150	 78.527420	 180.000000	 46.306630	 35.770300	-60.625310	-17.449500	 1.079982	-5.461722	-35.349070	-16.324580	-5.870222	-2.635965	 4.993658	 6.788941	-5.165319	 0.784187	 3.516649	-5.225038	 0.466231	 0.424329	-0.000002	-3.783157	-0.089647	 6.284245	 4.359500	-0.239444	 89.782120	 78.203900	 180.000000	-60.345470	 39.751780	 59.440100	 15.348400	 6.410322	 14.217820	 36.068880	-17.652570	 10.238860	 6.112037	 4.509576	-0.364401	 4.968462	 1.518543	-9.347576	 5.168945	 0.703820	 2.021906
 0.000313	 0.019775	 1.271408	-0.002285	 0.004922	 0.174094	 9.652874	-2.135254	 176.219400	 1.480944	-11.322240	-0.659978	-8.972670	 70.087240	 3.063797	-2.385833	 28.452760	 0.000004	-9.826450	-2.154617	-176.547900	-1.471353	-10.975980	 0.627532	 8.527314	 69.799730	-2.781396	 2.384658	 28.388730	 0.000004	-25.856320	 2.537879	 0.271911	-2.122102	 4.305506	-0.750450	 6.420813	-5.328637	 1.435867	-91.776250	 78.527450	-180.000000	 46.212940	 35.640530	-60.267260	-20.510490	 1.743962	-7.067837	-37.122630	-17.796390	-6.542059	-2.635965	 4.993658	 6.788941	-5.165319	 0.784187	 3.516649	-5.225038	 0.466231	 0.424329	-0.000002	-3.783157	-0.089647	 6.217359	 4.258653	-0.231407	 89.782170	 78.203890	 179.999900	-58.186670	 38.502320	 60.762540	 16.970670	 9.250085	 18.554400	 38.079020	-19.607580	 10.738580	 6.112037	 4.509576	-0.364401	 4.968462	 1.518543	-9.347576	 5.168945	 0.703820	 2.021906
